<svg width="42" height="42" viewBox="0 0 52 52" fill="none" xmlns="http://www.w3.org/2000/svg">
<g id="22_Video Player">
<path id="Vector" d="M49.3406 39.651H2.59688C1.90814 39.651 1.24762 39.3786 0.760607 38.8936C0.273599 38.4087 0 37.7509 0 37.0651V2.58594C0 1.9001 0.273599 1.24236 0.760607 0.757404C1.24762 0.272446 1.90814 0 2.59688 0H49.3406C50.0294 0 50.6899 0.272446 51.1769 0.757404C51.6639 1.24236 51.9375 1.9001 51.9375 2.58594V37.0651C51.9375 37.7509 51.6639 38.4087 51.1769 38.8936C50.6899 39.3786 50.0294 39.651 49.3406 39.651Z" fill="#0455BF"/>
<path id="Vector_2" d="M44.1469 36.2031H5.19374C4.73459 36.2031 4.29424 36.0215 3.96957 35.6981C3.64489 35.3748 3.46249 34.9363 3.46249 34.4791V5.17183C3.46249 4.71461 3.64489 4.27612 3.96957 3.95281C4.29424 3.62951 4.73459 3.44788 5.19374 3.44788H43.2812C43.7404 3.44788 44.1807 3.62951 44.5054 3.95281C44.8301 4.27612 45.0125 4.71461 45.0125 5.17183V35.3411C45.0125 35.5697 44.9213 35.789 44.759 35.9506C44.5966 36.1123 44.3764 36.2031 44.1469 36.2031Z" fill="#FDFEFF"/>
<path id="Vector_3" d="M5.19374 34.4791V5.17183C5.19374 4.71461 5.37614 4.27612 5.70082 3.95281C6.02549 3.62951 6.46584 3.44788 6.92499 3.44788H5.19374C4.73459 3.44788 4.29424 3.62951 3.96957 3.95281C3.64489 4.27612 3.46249 4.71461 3.46249 5.17183V34.4791C3.46249 34.9363 3.64489 35.3748 3.96957 35.6981C4.29424 36.0215 4.73459 36.2031 5.19374 36.2031H6.92499C6.46584 36.2031 6.02549 36.0215 5.70082 35.6981C5.37614 35.3748 5.19374 34.9363 5.19374 34.4791Z" fill="#DFEAEF"/>
<path id="Vector_4" d="M25.9688 27.5834C30.2714 27.5834 33.7594 24.1101 33.7594 19.8256C33.7594 15.541 30.2714 12.0677 25.9688 12.0677C21.6661 12.0677 18.1781 15.541 18.1781 19.8256C18.1781 24.1101 21.6661 27.5834 25.9688 27.5834Z" fill="#0455BF"/>
<path id="Vector_5" d="M29.4312 23.2734C29.4321 22.972 29.5125 22.6761 29.6644 22.4155C29.8164 22.1548 30.0345 21.9385 30.2969 21.7882C30.0348 21.6339 29.7363 21.5515 29.4318 21.5496C29.1273 21.5477 28.8278 21.6262 28.5638 21.7772C28.2997 21.9282 28.0807 22.1463 27.9289 22.4091C27.7772 22.672 27.6982 22.9702 27.7 23.2734V25.8594C28.2827 25.8583 28.8635 25.7918 29.4312 25.6611V23.2734Z" fill="#004787"/>
<path id="Vector_6" d="M27.7 25.8593C26.2636 25.8612 24.8547 25.467 23.6294 24.7205C22.4041 23.974 21.4102 22.9044 20.7578 21.63C20.1054 20.3557 19.82 18.9264 19.9332 17.5004C20.0464 16.0745 20.5538 14.7076 21.3991 13.5511C20.4867 14.2089 19.7285 15.056 19.1768 16.0339C18.6252 17.0118 18.2932 18.0973 18.2039 19.2155C18.1145 20.3336 18.2699 21.4577 18.6593 22.5102C19.0488 23.5627 19.6629 24.5185 20.4594 25.3116C21.2559 26.1048 22.2157 26.7163 23.2727 27.1041C24.3296 27.4919 25.4585 27.6466 26.5814 27.5577C27.7042 27.4687 28.7943 27.1381 29.7764 26.5888C30.7585 26.0395 31.6091 25.2845 32.2696 24.3759C30.9428 25.3402 29.3426 25.8597 27.7 25.8593Z" fill="#004787"/>
<path id="Vector_7" d="M24.2375 23.2734C24.0079 23.2734 23.7878 23.1826 23.6254 23.021C23.4631 22.8593 23.3719 22.6401 23.3719 22.4115V17.2396C23.3718 17.0926 23.4095 16.9481 23.4813 16.8197C23.5531 16.6914 23.6567 16.5834 23.7822 16.5061C23.9077 16.4288 24.0509 16.3847 24.1983 16.3781C24.3458 16.3714 24.4924 16.4024 24.6244 16.4681L29.8182 19.054C29.9406 19.1152 30.0468 19.2044 30.1279 19.3143C30.209 19.4242 30.2627 19.5517 30.2847 19.6864C30.3066 19.821 30.2962 19.9589 30.2542 20.0887C30.2123 20.2186 30.14 20.3366 30.0433 20.4332C29.9065 20.5694 29.9065 20.5694 24.6227 23.1821C24.5031 23.2417 24.3713 23.273 24.2375 23.2734Z" fill="#FEBC00"/>
<path id="Vector_8" d="M29.8182 19.054L29.6451 18.9678C28.8755 19.3497 27.8273 19.8686 26.3557 20.597C26.2237 20.6627 26.077 20.6937 25.9296 20.687C25.7822 20.6804 25.6389 20.6363 25.5134 20.559C25.3879 20.4817 25.2844 20.3737 25.2125 20.2454C25.1407 20.117 25.1031 19.9725 25.1031 19.8255V16.7069L24.6245 16.4681C24.4925 16.4024 24.3458 16.3714 24.1984 16.3781C24.0509 16.3847 23.9077 16.4288 23.7822 16.5061C23.6567 16.5834 23.5531 16.6914 23.4813 16.8197C23.4095 16.9481 23.3718 17.0926 23.3719 17.2396V22.4115C23.3712 22.5585 23.4084 22.7033 23.4798 22.8321C23.5512 22.9608 23.6545 23.0692 23.7799 23.147C23.9052 23.2247 24.0485 23.2693 24.196 23.2763C24.3436 23.2833 24.4905 23.2527 24.6227 23.1872C29.903 20.5746 29.903 20.5746 30.0433 20.4384C30.14 20.3418 30.2123 20.2237 30.2543 20.0939C30.2962 19.9641 30.3067 19.8262 30.2847 19.6915C30.2627 19.5569 30.209 19.4294 30.1279 19.3195C30.0468 19.2095 29.9407 19.1203 29.8182 19.0592V19.054Z" fill="#EDAA03"/>
<path id="Vector_9" d="M16.4469 29.3073H15.5812H8.65625V31.0312H15.5812H16.4469H32.8937V29.3073H16.4469Z" fill="#0455BF"/>
<path id="Vector_10" d="M50.2062 19.8255C50.2062 18.8734 49.4311 18.1016 48.475 18.1016C47.5189 18.1016 46.7437 18.8734 46.7437 19.8255C46.7437 20.7776 47.5189 21.5495 48.475 21.5495C49.4311 21.5495 50.2062 20.7776 50.2062 19.8255Z" fill="#FEBC00"/>
<path id="Vector_11" d="M49.3406 20.6875C49.0512 20.6887 48.7662 20.6173 48.5117 20.48C48.2573 20.3426 48.0417 20.1437 47.8847 19.9015C47.7278 19.6594 47.6346 19.3818 47.6137 19.0944C47.5928 18.8069 47.6449 18.5188 47.7652 18.2567C47.5085 18.3704 47.2834 18.5445 47.1094 18.7642C46.9353 18.9838 46.8176 19.2423 46.7663 19.5174C46.715 19.7925 46.7318 20.0758 46.815 20.343C46.8983 20.6102 47.0457 20.8532 47.2443 21.051C47.443 21.2489 47.687 21.3956 47.9553 21.4785C48.2237 21.5614 48.5082 21.5781 48.7845 21.527C49.0607 21.476 49.3203 21.3587 49.5409 21.1854C49.7614 21.0121 49.9363 20.788 50.0505 20.5323C49.8276 20.6337 49.5856 20.6866 49.3406 20.6875Z" fill="#EDAA03"/>
<path id="Vector_12" d="M41.55 34.4791C41.0908 34.4791 40.6505 34.6608 40.3258 34.9841C40.0012 35.3074 39.8188 35.7459 39.8188 36.2031V33.6171C39.8188 33.1599 39.6364 32.7214 39.3117 32.3981C38.987 32.0748 38.5467 31.8932 38.0875 31.8932C37.6283 31.8932 37.188 32.0748 36.8633 32.3981C36.5387 32.7214 36.3563 33.1599 36.3563 33.6171V30.1692C36.3563 29.712 36.1739 29.2735 35.8492 28.9502C35.5245 28.6269 35.0842 28.4453 34.625 28.4453C34.1658 28.4453 33.7255 28.6269 33.4008 28.9502C33.0762 29.2735 32.8938 29.712 32.8938 30.1692V23.2734C32.8938 22.8162 32.7114 22.3777 32.3867 22.0544C32.062 21.7311 31.6217 21.5494 31.1625 21.5494C30.7033 21.5494 30.263 21.7311 29.9383 22.0544C29.6137 22.3777 29.4313 22.8162 29.4313 23.2734V40.6612C29.4313 40.8731 29.3683 41.0802 29.2501 41.2564C29.1319 41.4326 28.9639 41.5699 28.7674 41.6509C28.5708 41.7319 28.3545 41.7531 28.1458 41.7116C27.9372 41.6702 27.7456 41.568 27.5953 41.4181L24.2375 38.0753C24.0778 37.9106 23.8868 37.7793 23.6755 37.689C23.4643 37.5986 23.2372 37.5511 23.0073 37.5491C22.7774 37.5471 22.5494 37.5907 22.3367 37.6774C22.1239 37.7641 21.9306 37.8921 21.7681 38.0539C21.6055 38.2158 21.477 38.4083 21.3899 38.6202C21.3029 38.832 21.2591 39.059 21.2611 39.2879C21.263 39.5168 21.3108 39.7431 21.4015 39.9534C21.4923 40.1637 21.6242 40.354 21.7895 40.513L25.4615 44.1704L27.0075 45.7064C28.6078 47.3014 29.5064 49.464 29.5057 51.7187H41.0401V51.3946C41.0402 50.1545 41.4321 48.9458 42.1603 47.9398C42.8891 46.934 43.2813 45.7253 43.2813 44.485V36.2031C43.2813 35.7459 43.0989 35.3074 42.7742 34.9841C42.4495 34.6608 42.0092 34.4791 41.55 34.4791Z" fill="#ECC19C"/>
<path id="Vector_13" d="M13.85 31.8932C13.5076 31.8932 13.1729 31.7921 12.8882 31.6027C12.6035 31.4133 12.3816 31.144 12.2505 30.829C12.1195 30.514 12.0852 30.1674 12.152 29.8329C12.2188 29.4985 12.3837 29.1913 12.6258 28.9502C12.8679 28.7091 13.1764 28.545 13.5122 28.4784C13.8481 28.4119 14.1962 28.4461 14.5125 28.5765C14.8289 28.707 15.0992 28.928 15.2895 29.2115C15.4797 29.495 15.5812 29.8283 15.5812 30.1693C15.5812 30.6265 15.3988 31.065 15.0742 31.3883C14.7495 31.7116 14.3092 31.8932 13.85 31.8932Z" fill="#FEBC00"/>
<path id="Vector_14" d="M14.7156 31.0312C14.4262 31.0324 14.1412 30.9611 13.8867 30.8237C13.6323 30.6864 13.4167 30.4874 13.2597 30.2453C13.1028 30.0031 13.0096 29.7256 12.9887 29.4381C12.9678 29.1506 13.0199 28.8626 13.1402 28.6005C12.8835 28.7141 12.6584 28.8883 12.4844 29.1079C12.3103 29.3275 12.1926 29.5861 12.1413 29.8611C12.09 30.1362 12.1068 30.4196 12.19 30.6868C12.2733 30.954 12.4207 31.197 12.6193 31.3948C12.818 31.5926 13.062 31.7393 13.3303 31.8223C13.5987 31.9052 13.8832 31.9218 14.1595 31.8708C14.4357 31.8197 14.6953 31.7025 14.9159 31.5292C15.1364 31.3559 15.3113 31.1317 15.4255 30.8761C15.2026 30.9775 14.9606 31.0304 14.7156 31.0312Z" fill="#EDAA03"/>
<path id="Vector_15" d="M21.7895 38.0753C21.8967 37.971 22.0172 37.8812 22.1479 37.8081C21.8591 37.6397 21.5274 37.5586 21.1932 37.5748C20.859 37.5909 20.5367 37.7035 20.2656 37.8988C19.9945 38.0942 19.7864 38.3639 19.6666 38.675C19.5468 38.9861 19.5204 39.3252 19.5908 39.651H21.3221C21.2616 39.3704 21.2727 39.0792 21.3544 38.8039C21.436 38.5287 21.5856 38.2782 21.7895 38.0753Z" fill="#004787"/>
<path id="Vector_16" d="M29.4313 36.2031H27.7V39.651H29.4313V36.2031Z" fill="#004787"/>
<path id="Vector_17" d="M29.4313 31.0312H27.7V36.2031H29.4313V31.0312Z" fill="#DFEAEF"/>
<path id="Vector_18" d="M29.4313 26.767C29.2296 26.867 29.0236 26.9601 28.8123 27.0419C28.7405 27.0704 28.6669 27.0962 28.5933 27.1221C28.3986 27.1919 28.2012 27.2531 27.9995 27.3074C27.913 27.3316 27.8203 27.3557 27.7294 27.3772L27.7 27.3841V29.3072H29.4313V26.767Z" fill="#DFEAEF"/>
<path id="Vector_19" d="M29.4313 25.6611C28.8635 25.7918 28.2827 25.8583 27.7 25.8594V27.3825L27.7294 27.3773C27.8203 27.3558 27.9104 27.3316 27.9995 27.3075C28.2012 27.2532 28.3994 27.192 28.5933 27.1222C28.6669 27.0963 28.7405 27.0705 28.8123 27.042C29.0236 26.9558 29.2296 26.8696 29.4313 26.7653V25.6611Z" fill="#004787"/>
<path id="Vector_20" d="M29.4313 29.3073H27.7V31.0312H29.4313V29.3073Z" fill="#004787"/>
</g>
</svg>
