<svg width="176" height="81" viewBox="0 0 176 81" fill="none" xmlns="http://www.w3.org/2000/svg">
<g id="63ad63d4da54a20ef0103533_Logo Ankorstore">
<path id="Vector" d="M13.7259 43.4304C13.7259 37.67 16.6035 33.2771 21.1383 33.2771C22.1192 33.2135 23.0953 33.4856 23.9588 34.0634C24.8223 34.6411 25.5395 35.502 26.0313 36.551V33.7882H30.958V53.0312H26.0313V50.2685C25.5095 51.3003 24.776 52.1442 23.9049 52.7143C23.034 53.2843 22.0564 53.5605 21.0711 53.5147C16.4132 53.5839 13.7259 49.2185 13.7259 43.4304ZM26.2329 43.4304C26.2329 40.6676 24.9676 38.3883 22.5043 38.3883C20.041 38.3883 18.7758 40.5018 18.7758 43.4304C18.7758 46.359 20.1978 48.5001 22.5043 48.5001C24.8109 48.5001 26.2329 46.2209 26.2329 43.4304Z" fill="white"/>
<path id="Vector_2" d="M31.7866 33.8428H36.7469V36.6056C37.2419 35.5134 37.9813 34.62 38.8767 34.0321C39.7722 33.4442 40.7858 33.1867 41.7967 33.2902C45.5924 33.2902 47.5072 35.9287 47.5072 41.1642V53.0858H42.5132V43.1949C42.5132 39.9624 41.7631 38.4843 39.7588 38.4843C37.7546 38.4843 36.7469 40.0867 36.7469 43.0429V53.0858H31.7866V33.8428Z" fill="white"/>
<path id="Vector_3" d="M61.538 43.4212C61.538 37.5364 64.8969 33.2678 70.2156 33.2678C75.5344 33.2678 78.8709 37.5364 78.8709 43.4212C78.8709 49.3059 75.5119 53.5746 70.2156 53.5746C64.9194 53.5746 61.538 49.292 61.538 43.4212ZM73.9442 43.4212C73.9442 40.5064 72.556 38.4204 70.2156 38.4204C67.8753 38.4204 66.4871 40.5478 66.4871 43.4212C66.4871 46.2945 67.8533 48.4218 70.2156 48.4218C72.578 48.4218 73.9442 46.3359 73.9442 43.4212Z" fill="white"/>
<path id="Vector_4" d="M89.8014 47.2616H94.728C94.728 48.643 95.7691 49.4993 97.2919 49.4993C98.4117 49.4993 99.106 48.85 99.106 47.7312C99.106 46.8609 98.7474 46.3498 97.4151 45.9354L94.1459 44.9407C91.6489 44.181 90.2268 42.1779 90.2268 39.3046C90.2268 35.6577 92.8805 33.2678 96.9448 33.2678C101.357 33.2678 103.91 35.3814 103.91 39.2217H99.0163C99.0163 37.8403 98.2102 37.1358 96.8779 37.1358C95.7581 37.1358 95.0972 37.785 95.0972 38.6968C95.0972 39.6085 95.5566 40.0782 96.822 40.5341L100.181 41.653C102.644 42.4542 104.133 44.2915 104.133 47.1785C104.133 51.1708 101.446 53.5332 97.2919 53.5332C92.7573 53.5746 89.8014 51.0188 89.8014 47.2616Z" fill="white"/>
<path id="Vector_5" d="M115.698 48.572V53.4484C114.587 53.6772 113.464 53.7836 112.339 53.7661C109.998 53.7661 106.74 53.1307 106.74 46.6933V39.5653H104.276V34.7304H106.74V28.9285H111.7V34.7995H115.227V39.5653H111.7V45.3672C111.7 48.13 112.64 48.6412 113.872 48.6412C114.481 48.6688 115.091 48.6455 115.698 48.572Z" fill="white"/>
<path id="Vector_6" d="M115.607 43.4212C115.607 37.5364 118.965 33.2678 124.284 33.2678C129.602 33.2678 132.939 37.5364 132.939 43.4212C132.939 49.3059 129.58 53.5746 124.284 53.5746C118.988 53.5746 115.607 49.292 115.607 43.4212ZM128.013 43.4212C128.013 40.5064 126.624 38.4204 124.284 38.4204C121.944 38.4204 120.567 40.5064 120.567 43.4212C120.567 46.3359 121.922 48.4218 124.284 48.4218C126.647 48.4218 128.013 46.3359 128.013 43.4212Z" fill="white"/>
<path id="Vector_7" d="M133.536 33.6308H138.497V37.6368C138.69 36.4032 139.227 35.2918 140.014 34.4946C140.801 33.6975 141.789 33.2649 142.808 33.2716C143.245 33.2522 143.682 33.308 144.107 33.4373V39.1564C143.613 39.0723 143.115 39.0308 142.617 39.0321C139.93 39.0321 138.497 41.187 138.497 45.4694V52.9013H133.536V33.6308Z" fill="white"/>
<path id="Vector_8" d="M160.565 45.0927H149.088C149.178 47.6206 150.544 48.9745 152.75 48.9745C154.273 48.9745 155.247 48.4494 155.661 47.2616H160.52C160.039 51.0466 156.893 53.5746 152.75 53.5746C147.431 53.5746 144.162 49.8585 144.162 43.4212C144.162 36.9838 147.521 33.2678 152.582 33.2678C157.441 33.2678 160.755 36.9838 160.755 42.4127C160.741 43.3103 160.677 44.2056 160.565 45.0927ZM155.807 41.2938C155.845 40.7478 155.783 40.1982 155.625 39.6862C155.467 39.174 155.217 38.7127 154.894 38.3366C154.571 37.9606 154.183 37.6796 153.759 37.5147C153.336 37.3498 152.887 37.3053 152.448 37.3844C152.014 37.344 151.579 37.4156 151.169 37.5946C150.759 37.7736 150.385 38.0561 150.068 38.424C149.752 38.792 149.501 39.2373 149.333 39.7314C149.164 40.2256 149.081 40.7577 149.088 41.2938H155.807Z" fill="white"/>
<path id="Vector_9" fill-rule="evenodd" clip-rule="evenodd" d="M84.4241 37.8217C85.1778 34.3321 87.2005 32.5424 92.2618 33.5445C90.4407 34.8509 89.7899 36.4535 89.2307 37.83C88.4453 39.7646 87.8407 41.2527 84.4241 40.8451V52.9532H79.475V33.6827H84.4241V37.8217Z" fill="white"/>
<path id="Vector_10" d="M58.1676 53.5215L53.185 45.233V53.5215H48.3142V27.4819H53.2184V42.4702L58.3352 34.3751H64.1467L57.9436 43.4648L64.2136 53.5215H58.1676Z" fill="white"/>
</g>
</svg>
