<svg width="64" height="60" viewBox="0 0 64 60" fill="none" xmlns="http://www.w3.org/2000/svg">
<path fill-rule="evenodd" clip-rule="evenodd" d="M6.66667 47.5C4.45753 47.5 2.66667 45.821 2.66667 43.75V16.25C2.66667 14.1789 4.45753 12.5 6.66667 12.5H21.3333C34.6667 12.5 34.6667 28.75 26.6667 28.75C34.6667 28.75 37.3333 47.5 21.3333 47.5H6.66667ZM12 27.5C11.2636 27.5 10.6667 26.9403 10.6667 26.25V18.75C10.6667 18.0596 11.2636 17.5 12 17.5H18.6667C18.6667 17.5 24 17.5 24 22.5C24 27.5 18.6667 27.5 18.6667 27.5H12ZM12 32.5C11.2636 32.5 10.6667 33.0597 10.6667 33.75V41.25C10.6667 41.9403 11.2636 42.5 12 42.5H21.3333C21.3333 42.5 25.3333 42.5 25.3333 37.5C25.3333 32.5 21.3333 32.5 21.3333 32.5H12Z" fill="white"/>
<path fill-rule="evenodd" clip-rule="evenodd" d="M57.3307 35.0085C59.5411 35.0085 61.3899 33.2998 60.9392 31.2713C57.6173 16.3222 34.4341 17.7022 34.6667 35.0085C34.844 48.1905 54.4917 52.4178 60.2768 40.4745C61.196 38.577 59.1325 37.4993 57.4325 37.4993C55.9216 37.4993 54.7501 38.8058 53.7848 39.8955C51.0059 43.033 42.5675 42.8053 41.4531 36.2855C41.3347 35.5938 41.9477 35.0085 42.6949 35.0085H57.3307ZM42.1824 29.9993C41.7893 29.9993 41.5355 29.6133 41.7453 29.3018C44.5709 25.106 51.3637 25.1513 54.2395 29.2973C54.4552 29.6085 54.2019 29.9993 53.8059 29.9993H42.1824Z" fill="white"/>
<path d="M42.6667 15C41.1939 15 40 16.1193 40 17.5C40 18.8807 41.1939 20 42.6667 20H53.3333C54.8061 20 56 18.8807 56 17.5C56 16.1193 54.8061 15 53.3333 15H42.6667Z" fill="white"/>
</svg>
