<svg width="160" height="97" viewBox="0 0 160 97" fill="none" xmlns="http://www.w3.org/2000/svg">
<g id="cisco-svgrepo-com">
<path id="Vector" d="M0 48.8556C0.138708 50.1551 1.63782 51.17 3.46237 51.17C5.28692 51.17 6.78604 50.1551 6.92474 48.8633V48.8556V43.3079C6.83939 41.9777 5.32426 40.9204 3.46237 40.9204C1.60048 40.9204 0.0853589 41.9777 0 43.304V43.3079V48.8556ZM19.1738 48.8556C19.3338 50.1435 20.8276 51.1431 22.6415 51.1431C24.4553 51.1431 25.9491 50.1435 26.1092 48.8633V48.8518V36.4145C26.0238 35.0843 24.5087 34.0271 22.6468 34.0271C20.7849 34.0271 19.2698 35.0843 19.1844 36.4107V48.8518L19.1738 48.8556ZM38.2515 53.8689C38.3368 55.1992 39.852 56.2564 41.7138 56.2564C43.5757 56.2564 45.0909 55.1992 45.1762 53.8728V53.8689V26.9607C45.0909 25.6305 43.5757 24.5732 41.7138 24.5732C39.852 24.5732 38.3368 25.6305 38.2515 26.9569V26.9607V53.8689ZM57.4946 48.8556C57.5799 50.1858 59.0951 51.2431 60.957 51.2431C62.8188 51.2431 64.334 50.1858 64.4193 48.8595V48.8556V36.4184C64.334 35.0882 62.8188 34.0309 60.957 34.0309C59.0951 34.0309 57.5799 35.0882 57.4946 36.4145V36.4184V48.8556ZM76.631 48.8556C76.8124 50.132 78.2902 51.1162 80.0934 51.1162C81.8966 51.1162 83.3797 50.1282 83.5557 48.8633V48.8518V43.304C83.4704 41.9738 81.9553 40.9166 80.0934 40.9166C78.2315 40.9166 76.7163 41.9738 76.631 43.3002V48.8556ZM95.9541 48.8556C96.0715 50.1705 97.5759 51.2046 99.4218 51.2046C101.268 51.2046 102.772 50.1705 102.89 48.8633V48.8556V36.4184C102.804 35.0882 101.289 34.0309 99.4272 34.0309C97.5653 34.0309 96.0501 35.0882 95.9648 36.4145V36.4184V48.8556H95.9541ZM114.877 53.8689C115.016 55.1684 116.515 56.1834 118.339 56.1834C120.164 56.1834 121.663 55.1684 121.802 53.8766V53.8689V26.9607C121.717 25.6305 120.201 24.5732 118.339 24.5732C116.478 24.5732 114.962 25.6305 114.877 26.9569V26.9607V53.8689ZM134.115 48.8556C134.259 50.1551 135.758 51.1739 137.583 51.1739C139.407 51.1739 140.912 50.1589 141.05 48.8633V48.8556V36.4184C140.933 35.1035 139.428 34.0694 137.583 34.0694C135.737 34.0694 134.232 35.1035 134.115 36.4107V36.4184V48.8556ZM153.075 48.8556C153.161 50.1858 154.676 51.2431 156.538 51.2431C158.4 51.2431 159.915 50.1858 160 48.8595V48.8556V43.3079C159.915 41.9777 158.4 40.9204 156.538 40.9204C154.676 40.9204 153.161 41.9777 153.075 43.304V43.3079V48.8556ZM116.152 74.9642C116.28 80.7118 122.778 85.3368 130.77 85.3368C131.89 85.3368 132.979 85.2446 134.024 85.0754L133.928 85.0869C140.581 84.1565 145.537 79.989 145.537 74.9911C145.537 71.2657 142.784 68.0016 138.666 66.1985L138.602 66.1716C136.404 65.1759 133.731 64.5876 130.866 64.5876C122.853 64.5876 116.334 69.205 116.158 74.9526V74.9642H116.152ZM126.315 70.862C127.564 70.1238 129.175 69.6779 130.93 69.6779C134.963 69.6779 138.233 72.0346 138.233 74.9411C138.233 76.5827 137.188 78.0513 135.555 79.0163L135.545 79.024L135.433 79.0894C134.216 79.7699 132.664 80.1774 130.983 80.1774C126.95 80.1774 123.674 77.8207 123.674 74.9103C123.674 73.2841 124.699 71.8308 126.305 70.8658L126.315 70.8581V70.862ZM45.2349 84.9678H52.2343V64.949H45.2349V84.9678ZM61.7359 80.1851L61.7092 84.7832L62.1733 84.8409C63.411 85.0177 64.9315 85.1638 66.4679 85.2446L66.596 85.2484C67.3429 85.3022 68.2125 85.333 69.0927 85.333C69.5889 85.333 70.085 85.3215 70.5812 85.3022L70.5118 85.3061C71.8616 85.233 73.1099 85.0523 74.305 84.7832L74.1876 84.8063C75.6547 84.5026 76.9297 83.9951 78.0074 83.3338L77.9914 83.3415C78.973 82.7341 79.7306 81.9613 80.1947 81.0847L80.2107 81.0463C80.5788 80.3735 80.7976 79.5969 80.7976 78.7818C80.7976 77.936 80.5682 77.1287 80.1467 76.3905L80.168 76.4328C79.7199 75.6408 79.0424 74.9757 78.1888 74.449L78.1781 74.4413C77.3619 73.9146 76.3856 73.4955 75.3186 73.2303L75.2599 73.2187L70.4478 71.9308C69.8716 71.7501 69.4128 71.4348 69.1407 71.0388L69.1354 71.0273C69.0447 70.8851 68.9914 70.7159 68.9914 70.539C68.9914 70.3314 69.0661 70.1392 69.1941 69.97L69.1888 69.9777C69.4395 69.6855 69.7863 69.4549 70.2024 69.3011L70.2184 69.2972C70.7146 69.1204 71.2961 68.9935 71.9042 68.9435H71.9309C72.3577 68.8974 72.8539 68.8705 73.3607 68.8705C73.9422 68.8705 74.5077 68.9051 75.0572 68.9743L74.9985 68.9666C76.3482 69.0743 77.5539 69.2357 78.7276 69.4549L78.5516 69.428L78.8023 69.4664V65.222L78.3435 65.1489C77.3565 64.9683 76.1295 64.8029 74.8758 64.6953L74.7211 64.6838C73.9849 64.6107 73.1313 64.5684 72.2617 64.5684C71.4508 64.5684 70.6505 64.6069 69.8663 64.6761L69.9623 64.6684C67.871 64.8106 65.9931 65.3873 64.4673 66.2639L64.4887 66.2523C63.443 66.8482 62.6375 67.6364 62.1626 68.5399L62.1466 68.5745C61.8159 69.2165 61.6238 69.9585 61.6238 70.7351C61.6238 71.5117 61.8159 72.2537 62.168 72.9381L62.1466 72.8919C62.5254 73.6109 63.0963 74.2222 63.8218 74.722H63.8271C64.4567 75.1602 65.1769 75.537 65.9558 75.8369L66.0091 75.8561C66.9587 76.229 68.0577 76.5481 69.2154 76.775L69.3221 76.7942C69.7009 76.8749 70.0797 76.9633 70.4531 77.0518L71.0186 77.2017L71.1787 77.2478C71.7655 77.4016 72.267 77.6284 72.6885 77.9206C72.9819 78.1167 73.2113 78.3589 73.3553 78.6319L73.3607 78.6434C73.4034 78.7626 73.43 78.8972 73.43 79.0394C73.43 79.174 73.4087 79.3047 73.3607 79.4277L73.366 79.4162C73.1793 79.8314 72.7845 80.1659 72.2723 80.3619L72.2617 80.3658C71.7282 80.5657 71.1093 80.7118 70.4585 80.7772L70.4265 80.781C69.8023 80.8541 69.0767 80.8963 68.3405 80.8963C68.0738 80.8963 67.807 80.8925 67.5403 80.881H67.5776C66.1638 80.8002 64.8941 80.6734 63.6458 80.5004L63.8645 80.5273C63.2243 80.4273 62.5859 80.3197 61.9492 80.2043L61.7359 80.1851ZM35.5733 84.6179V79.2816L35.4293 79.3278C33.8715 79.8852 32.0469 80.2351 30.121 80.3004H30.089C29.9076 80.312 29.6942 80.3158 29.4808 80.3158C27.683 80.3158 26.0238 79.8814 24.6954 79.1509L24.7167 79.1624C23.6391 78.5588 22.8228 77.7438 22.3907 76.8057L22.3747 76.7711C22.1186 76.2329 21.9746 75.6139 21.9746 74.968C21.9746 74.4682 22.06 73.9876 22.2253 73.5263L22.2147 73.5647C22.5721 72.4536 23.4204 71.5117 24.5834 70.8389L24.594 70.8312C25.613 70.2123 26.8987 69.7932 28.3072 69.6702L28.3392 69.6663C28.75 69.6317 29.2301 69.6125 29.7102 69.6125C31.7962 69.6125 33.7595 69.9854 35.4773 70.6428L35.408 70.6198L35.568 70.6813V65.3143L35.2266 65.2489C33.4927 64.8375 31.4974 64.5992 29.4275 64.5992C29.0967 64.5992 28.766 64.6069 28.4405 64.6184H28.4885C26.2959 64.6607 24.2366 65.0182 22.3694 65.6372L22.4654 65.6064C20.5022 66.2639 18.8537 67.1943 17.5519 68.3323L17.5306 68.3476C15.5407 70.1507 14.335 72.4613 14.335 74.9757C14.335 77.3747 15.434 79.5892 17.2852 81.3731L17.2585 81.3462C19.1951 83.1262 21.8946 84.418 25.0048 84.9639L25.1009 84.9793C26.4026 85.2177 27.9017 85.3561 29.4435 85.3561C31.4334 85.3561 33.3487 85.1254 35.1465 84.7025L35.0185 84.7294L35.5733 84.6179ZM108.875 84.6179V79.2816L108.731 79.3278C107.173 79.8852 105.349 80.2351 103.423 80.3004H103.391C103.21 80.312 103.002 80.3158 102.788 80.3158C100.985 80.3158 99.3258 79.8814 97.9974 79.1509L98.0187 79.1624C96.9411 78.5588 96.1248 77.7438 95.6874 76.8057L95.6714 76.7711C95.4206 76.2367 95.2766 75.6177 95.2766 74.9757C95.2766 74.4759 95.3619 73.9876 95.5273 73.5263L95.5167 73.5647C95.8794 72.4536 96.7277 71.5117 97.8854 70.8389L97.896 70.8312C98.915 70.2123 100.201 69.7932 101.609 69.6702L101.641 69.6663C102.052 69.6317 102.532 69.6125 103.012 69.6125C105.098 69.6125 107.061 69.9854 108.779 70.6428L108.71 70.6198L108.87 70.6813V65.3143L108.529 65.2489C106.795 64.8375 104.799 64.5992 102.729 64.5992C102.399 64.5992 102.068 64.6069 101.743 64.6184H101.791C99.5979 64.6607 97.5386 65.0182 95.6714 65.6372L95.7674 65.6064C93.8041 66.2639 92.161 67.1904 90.8593 68.3323L90.8379 68.3515C88.8426 70.1546 87.6423 72.4613 87.6423 74.9757C87.6423 77.3786 88.7413 79.593 90.6032 81.3769L90.5765 81.35C92.5131 83.13 95.2126 84.418 98.3121 84.9678L98.4082 84.9831C99.7099 85.2215 101.209 85.3599 102.751 85.3599C104.741 85.3599 106.656 85.1292 108.454 84.7063L108.326 84.7332L108.87 84.6217L108.875 84.6179Z" fill="white" fill-opacity="0.9"/>
</g>
</svg>
