<svg width="152" height="26" viewBox="0 0 152 26" fill="none" xmlns="http://www.w3.org/2000/svg">
<g id="Group">
<path id="Vector" d="M76.3954 8.15486C76.4883 6.02655 77.1287 4.28734 78.1293 2.93053V1.12256H76.7994C74.1112 1.12256 71.8354 2.35023 70.5125 5.12424H70.4351V1.4278H63.5402V23.9704H70.4365V14.8702C70.4365 11.0077 71.3851 8.06261 75.2118 8.06261C75.6284 8.06597 76.0182 8.09448 76.3954 8.15486Z" fill="white"/>
<path id="Vector_2" d="M128.609 8.07264C129.182 6.08019 130.111 4.30576 131.318 2.88186V1.12085H129.991C127.301 1.12085 125.028 2.34852 123.698 5.12086H123.624V1.42777H116.725V23.9704H123.624V14.8701C123.624 11.0077 124.575 8.06258 128.402 8.06258L128.609 8.07264Z" fill="white"/>
<path id="Vector_3" d="M90.4006 7.22735C89.3366 6.56823 87.856 6.12882 86.678 6.12882C85.8871 6.12882 84.5205 6.52127 84.5205 7.66677C84.5205 9.20639 86.678 9.42442 87.6322 9.64916C90.8468 10.3938 93.2788 12.1531 93.2788 16.3225C93.2788 22.253 88.616 24.7217 84.1025 24.7217C81.3341 24.7217 78.6108 23.7976 76.2576 22.1272L78.7585 16.5423C80.1589 17.6894 82.5093 18.8282 84.2151 18.8282C85.0876 18.8282 86.3754 18.3469 86.3754 17.1158C86.3754 15.3582 84.2151 15.2659 82.0519 14.6085C79.8943 13.9494 77.7368 12.7217 77.7368 8.67809C77.7368 3.14013 82.0519 0.683105 86.3051 0.683105C88.5034 0.683105 90.7032 1.07724 92.7074 2.13216L90.4006 7.22735Z" fill="white"/>
<path id="Vector_4" d="M152 23.9703H145.104V21.4629H145.028C143.814 23.7036 141.422 24.7132 139.152 24.7132C133.387 24.7132 129.335 19.1317 129.335 12.6713C129.335 6.21761 133.315 0.677979 139.074 0.677979C141.309 0.677979 143.662 1.64402 145.102 3.6197V1.42767H151.997L152 23.9703ZM136.461 12.7199C136.461 15.5744 138.093 17.7715 140.894 17.7715C143.698 17.7715 145.323 15.5778 145.323 12.7199C145.323 9.95095 143.698 7.62306 140.894 7.62306C138.093 7.62474 136.461 9.95095 136.461 12.7199Z" fill="white"/>
<path id="Vector_5" d="M115.637 14.0416H101.117C101.117 17.2903 102.599 19.0462 105.44 19.0462C106.918 19.0462 107.978 18.4777 108.738 16.9817H115.372C114.273 22.2999 109.913 24.7167 105.48 24.7167C99.0406 24.7167 94.2273 20.4953 94.2273 12.7217C94.2273 5.20806 98.6564 0.683105 104.986 0.683105C111.731 0.683105 115.64 5.51833 115.64 13.2047L115.637 14.0416ZM109.23 9.42442C108.888 7.27096 107.182 5.8655 105.328 5.8655C103.316 5.8655 101.656 7.0915 101.232 9.42442H109.23Z" fill="white"/>
<path id="Vector_6" d="M41.6044 12.3275C41.5973 12.133 41.5861 11.9435 41.5734 11.7506V11.7472V11.7439C41.4186 9.65248 40.8387 7.69525 39.855 5.92753C39.4159 5.13927 38.9134 4.42313 38.3519 3.78078C37.5313 2.83989 36.5813 2.0617 35.5103 1.44618C33.8988 0.52878 32.1184 0.0658861 30.2184 0.0658861C30.0327 0.0658861 29.8384 0.0692404 29.6428 0.0776262C28.3086 0.149744 27.018 0.451631 25.8048 0.983288C24.5818 1.50991 23.5164 2.20593 22.6452 3.04115C22.4679 3.20887 22.275 3.41516 22.0681 3.64157L21.919 3.816L21.7149 4.07428H21.7163H21.7177L21.622 4.18665L21.5756 4.24703L21.3321 4.55227C21.1519 4.79378 20.9802 5.03529 20.8198 5.27177L20.8184 5.26841L20.8127 5.2617C20.4792 5.74472 20.171 6.24451 19.9444 6.69399C19.791 6.98246 19.6404 7.27932 19.4968 7.57617L17.5082 12.3678L17.511 12.3711L17.4068 12.6143L17.1873 13.1443C16.751 14.1959 16.2837 15.2441 15.7616 16.1095C14.5976 17.6307 13.2817 18.3754 11.59 18.3754C11.4718 18.3754 11.3507 18.3686 11.2269 18.3603C10.2079 18.3116 9.33393 18.0248 8.55845 17.4781C8.47541 17.4194 8.39519 17.359 8.31778 17.2969C7.68445 16.7955 7.19889 16.1514 6.83578 15.3481C6.42622 14.4374 6.24467 13.5066 6.27 12.5204C6.27141 12.4936 6.27282 12.4701 6.27282 12.4483C6.32771 10.8785 6.83015 9.65752 7.84208 8.60259C8.08837 8.34934 8.34593 8.13466 8.61474 7.94347C8.65274 7.91663 8.69074 7.89148 8.72874 7.868C9.4803 7.37994 10.336 7.13676 11.317 7.13676L11.6224 7.14682C13.1804 7.21726 14.3823 7.79755 15.3407 8.92963L18.347 2.49776C17.6278 1.92417 16.8157 1.43109 15.9206 1.03025C15.8868 1.01515 15.8516 0.998382 15.8164 0.984965C15.7095 0.939682 15.6039 0.892722 15.4942 0.850793C14.5427 0.471757 13.5449 0.238633 12.5175 0.132972C12.4922 0.127941 12.464 0.124586 12.4387 0.121232C12.281 0.109492 12.1206 0.086012 11.963 0.0776262C11.7913 0.0692404 11.6182 0.0658861 11.4493 0.064209H11.3522C9.462 0.0725947 7.70556 0.533811 6.09971 1.44786C4.30104 2.48098 2.84296 3.98539 1.76208 5.92418C0.684002 7.86296 0.0957052 10.0147 0.0112608 12.3242C0.00422373 12.5221 1.50151e-06 12.7183 1.50151e-06 12.9112C-0.00140591 16.1414 0.986594 18.9825 2.95133 21.3674C5.00193 23.8697 7.66897 25.2181 10.8708 25.3775C11.0763 25.3875 11.279 25.3942 11.4816 25.3942C13.293 25.3942 14.9692 25.0102 16.4723 24.242C16.8481 24.0508 17.2126 23.8261 17.5856 23.5762C17.7882 23.437 17.9796 23.2894 18.1696 23.1318L18.3104 23.0194L18.5468 22.8265C18.8311 22.5833 19.0971 22.32 19.3561 22.0399L19.4461 21.9376C19.5982 21.7649 19.7502 21.5905 19.8937 21.411L20.4327 20.6848L20.6382 20.3779L20.7339 20.2102L20.8296 20.0458C21.6304 18.4424 24.237 12.6076 24.237 12.6076V12.5959L24.3918 12.2403L24.5213 11.9619C24.9055 11.1284 25.1827 10.5363 25.5501 9.91412L25.5599 9.89567C26.417 8.41475 27.8906 7.35982 29.6273 7.18204C32.5407 6.88351 35.0937 9.16443 35.3287 12.2772C35.5624 15.39 33.3893 18.1556 30.476 18.4559C29.8694 18.5179 29.2797 18.4693 28.7238 18.3234L28.7097 18.3301C26.5719 17.8001 25.2109 15.9418 24.5396 15.1116L21.736 21.255C21.736 21.255 22.6072 22.3016 23.2039 22.8248C23.8021 23.3464 24.5747 23.8596 25.1912 24.1783C26.6873 24.9397 28.3142 25.3959 30.1115 25.3959C30.3198 25.3959 30.2776 25.3959 30.4943 25.3858C33.6933 25.2265 36.5447 23.7657 38.601 21.2634C40.5488 18.8869 41.6058 16.1733 41.6156 12.9615V12.8659C41.6142 12.6881 41.61 12.5087 41.6044 12.3275Z" fill="white"/>
<path id="Vector_7" d="M52.3288 24.7317C50.875 24.7317 49.5563 24.5304 48.3726 24.1279C47.189 23.7254 46.1785 23.0897 45.3411 22.2176C44.5008 21.3455 43.8534 20.2352 43.3974 18.8885C42.9414 17.5417 42.7134 15.9182 42.7134 14.0264V1.42261H49.3663V13.9258C49.3663 15.343 49.6506 16.3694 50.2177 17.0101C50.7863 17.6524 51.5083 17.9727 52.3837 17.9727C53.2789 17.9727 54.0051 17.6742 54.5652 17.0755C55.1226 16.4767 55.404 15.4838 55.404 14.0885V1.42261H62.0569V13.8604C62.0569 15.8193 61.8232 17.4847 61.3574 18.8549C60.8915 20.2268 60.2343 21.3472 59.3884 22.2193C58.5383 23.0914 57.5151 23.7254 56.3118 24.1296C55.1085 24.5304 53.7813 24.7317 52.3288 24.7317Z" fill="white"/>
</g>
</svg>
