<svg width="42" height="43" viewBox="0 0 42 43" fill="none" xmlns="http://www.w3.org/2000/svg">
<path d="M40.5763 9.80347L40.5742 9.80469L22.4237 0.343904C21.5409 -0.114635 20.459 -0.114635 19.5763 0.343904L1.42374 9.80567C0.541043 10.2643 0 11.1126 0 12.034V30.9618C0 31.8789 0.541043 32.7274 1.42374 33.1902L19.5763 42.6565C20.459 43.1145 21.5409 43.1145 22.4237 42.6565L40.5763 33.1945C41.459 32.7359 42 31.8875 42 30.9661V23.0042C42 22.1471 40.9701 21.6115 40.1491 22.04L21.9586 31.5232C21.3702 31.8275 20.6488 31.8275 20.0604 31.5232L11.8311 27.2337C11.2427 26.9295 10.882 26.3595 10.882 25.7511V17.3348C10.882 16.722 11.2427 16.1564 11.8311 15.8521L20.0604 11.5626C20.6488 11.2584 21.3702 11.2584 21.9586 11.5626L23.8285 12.5354C24.5546 12.9167 24.5546 13.8638 23.8285 14.2409L16.2874 18.1705C15.699 18.4747 15.3383 19.0446 15.3383 19.6531V23.4241C15.3383 24.037 15.699 24.6025 16.2874 24.9068L20.0604 26.8738C20.6488 27.178 21.3702 27.178 21.9586 26.8738L40.5763 17.1677C41.459 16.7092 42 15.8607 42 14.9395V12.0297C42 11.1134 41.4598 10.2655 40.5783 9.80242L40.5763 9.80347Z" fill="url(#paint0_linear_223_259)"/>
<defs>
<linearGradient id="paint0_linear_223_259" x1="42" y1="43.0001" x2="-1.04445" y2="37.3649" gradientUnits="userSpaceOnUse">
<stop stop-color="white"/>
<stop offset="1" stop-color="white"/>
</linearGradient>
</defs>
</svg>
