<svg width="187" height="30" viewBox="0 0 187 30" fill="none" xmlns="http://www.w3.org/2000/svg">
<path id="Vector" d="M9.90255 30C7.94828 30 6.2186 29.5658 4.7135 28.6975C3.23478 27.8011 2.07263 26.5546 1.22775 24.958C0.40925 23.3333 0 21.4426 0 19.2857V18.7815C0 16.5967 0.40925 14.7059 1.22775 13.1092C2.04625 11.5126 3.19557 10.2801 4.67429 9.4118C6.153 8.51543 7.85631 8.06725 9.78349 8.06725C11.685 8.06725 13.3484 8.51543 14.7743 9.4118C16.2003 10.2801 17.3097 11.5126 18.1018 13.1092C18.8939 14.7059 19.2903 16.5686 19.2903 18.6974V20.4201H4.59515C4.64791 22.0448 5.18906 23.3473 6.2186 24.3277C7.24885 25.3081 8.51653 25.7983 10.0216 25.7983C11.5003 25.7983 12.5962 25.4622 13.3092 24.7899C14.0221 24.0897 14.5633 23.3053 14.9333 22.437L18.6957 24.4958C18.3264 25.2521 17.7852 26.0644 17.0723 26.9327C16.3857 27.7731 15.4609 28.5014 14.2995 29.1176C13.1373 29.7059 11.6715 30 9.90255 30ZM4.63436 16.7647H14.656C14.5498 15.3922 14.0485 14.2997 13.1509 13.4874C12.2789 12.6751 11.1438 12.2689 9.74427 12.2689C8.29193 12.2689 7.12978 12.6751 6.25852 13.4874C5.38727 14.2997 4.8454 15.3922 4.63436 16.7647ZM22.4873 29.4117V0H39.7571V4.57986H27.28V12.3529H38.7668V16.9748H27.28V29.4117H22.4873ZM51.5982 30C49.644 30 47.8879 29.5798 46.3301 28.7395C44.7986 27.8712 43.5837 26.6527 42.686 25.084C41.8148 23.4874 41.3791 21.5826 41.3791 19.3697V18.6974C41.3791 16.4846 41.8148 14.5798 42.686 12.9832C43.5837 11.3866 44.7986 10.1681 46.3301 9.3277C47.8879 8.48737 49.644 8.06725 51.5982 8.06725C53.5525 8.06725 55.295 8.48737 56.8265 9.3277C58.3587 10.1681 59.5601 11.3866 60.4313 12.9832C61.329 14.5798 61.7782 16.4846 61.7782 18.6974V19.3697C61.7782 21.5826 61.329 23.4874 60.4313 25.084C59.5601 26.6527 58.3587 27.8712 56.8265 28.7395C55.295 29.5798 53.5525 30 51.5982 30ZM51.5982 25.7143C53.2616 25.7143 54.622 25.1541 55.6779 24.0336C56.7345 22.8852 57.2629 21.2885 57.2629 19.2437V18.8235C57.2629 16.7787 56.7345 15.1961 55.6779 14.0756C54.622 12.9272 53.2616 12.3529 51.5982 12.3529C49.9349 12.3529 48.5745 12.9272 47.5186 14.0756C46.462 15.1961 45.9343 16.7787 45.9343 18.8235V19.2437C45.9343 21.2885 46.462 22.8852 47.5186 24.0336C48.5745 25.1541 49.9349 25.7143 51.5982 25.7143ZM72.7873 29.7478C71.2822 29.7478 69.9482 29.3978 68.7867 28.6975C67.6246 27.9692 66.7269 26.9608 66.0931 25.6723C65.4593 24.3557 65.1427 22.8291 65.1427 21.0924V8.6555H69.658V20.7143C69.658 22.3949 70.0409 23.6415 70.8066 24.4537C71.5987 25.2661 72.7081 25.6723 74.1341 25.6723C75.7447 25.6723 77.0124 25.112 77.9364 23.9916C78.8875 22.8712 79.3624 21.2605 79.3624 19.1596V8.6555H83.8784V29.4117H79.4415V26.5126H78.7684C78.4248 27.2689 77.7909 27.9972 76.8669 28.6975C75.9693 29.3978 74.6096 29.7478 72.7873 29.7478ZM88.3502 29.4117V8.6555H92.8262V11.5546H93.4993C93.8422 10.7703 94.4632 10.028 95.3609 9.3277C96.2585 8.62744 97.6189 8.27735 99.4405 8.27735C100.946 8.27735 102.28 8.64143 103.441 9.36975C104.603 10.0981 105.501 11.1064 106.135 12.395C106.795 13.6835 107.125 15.2101 107.125 16.9748V29.4117H102.57V17.353C102.57 15.6722 102.174 14.4258 101.382 13.6134C100.616 12.7731 99.5197 12.3529 98.0937 12.3529C96.4831 12.3529 95.2154 12.9272 94.2914 14.0756C93.3674 15.1961 92.9054 16.8067 92.9054 18.9075V29.4117H88.3502ZM119.4 30C117.815 30 116.337 29.5938 114.964 28.7815C113.591 27.9412 112.495 26.7226 111.676 25.126C110.857 23.5294 110.448 21.6106 110.448 19.3697V18.6974C110.448 16.4566 110.857 14.5378 111.676 12.9412C112.495 11.3445 113.577 10.14 114.924 9.3277C116.297 8.48737 117.789 8.06725 119.4 8.06725C120.615 8.06725 121.645 8.2213 122.49 8.52942C123.335 8.83754 124.008 9.22968 124.51 9.70585C125.038 10.1821 125.447 10.7003 125.738 11.2605H126.411V0H130.926V29.4117H126.49V26.6807H125.817C125.342 27.521 124.616 28.2913 123.638 28.9915C122.662 29.6638 121.248 30 119.4 30ZM120.747 25.7983C122.384 25.7983 123.744 25.2381 124.827 24.1176C125.909 22.9692 126.451 21.3445 126.451 19.2437V18.8235C126.451 16.6947 125.909 15.07 124.827 13.9496C123.77 12.8292 122.411 12.2689 120.747 12.2689C119.109 12.2689 117.736 12.8292 116.628 13.9496C115.545 15.07 115.003 16.6947 115.003 18.8235V19.2437C115.003 21.3445 115.545 22.9692 116.628 24.1176C117.736 25.2381 119.109 25.7983 120.747 25.7983ZM144.33 30C142.375 30 140.646 29.5658 139.141 28.6975C137.662 27.8011 136.5 26.5546 135.655 24.958C134.836 23.3333 134.427 21.4426 134.427 19.2857V18.7815C134.427 16.5967 134.836 14.7059 135.655 13.1092C136.473 11.5126 137.622 10.2801 139.101 9.4118C140.579 8.51543 142.283 8.06725 144.211 8.06725C146.112 8.06725 147.775 8.51543 149.201 9.4118C150.627 10.2801 151.736 11.5126 152.529 13.1092C153.321 14.7059 153.717 16.5686 153.717 18.6974V20.4201H139.022C139.074 22.0448 139.615 23.3473 140.646 24.3277C141.675 25.3081 142.943 25.7983 144.448 25.7983C145.927 25.7983 147.023 25.4622 147.736 24.7899C148.449 24.0897 148.99 23.3053 149.36 22.437L153.123 24.4958C152.753 25.2521 152.212 26.0644 151.499 26.9327C150.812 27.7731 149.888 28.5014 148.726 29.1176C147.564 29.7059 146.099 30 144.33 30ZM139.061 16.7647H149.082C148.977 15.3922 148.475 14.2997 147.577 13.4874C146.706 12.6751 145.57 12.2689 144.171 12.2689C142.718 12.2689 141.557 12.6751 140.685 13.4874C139.814 14.2997 139.273 15.3922 139.061 16.7647ZM157.072 29.4117V8.6555H161.548V11.0504H162.221C162.511 10.1821 163 9.55179 163.687 9.15965C164.374 8.7675 165.192 8.57139 166.143 8.57139H168.519V12.8571H166.063C164.743 12.8571 163.673 13.2353 162.855 13.9916C162.036 14.7199 161.627 15.8544 161.627 17.3949V29.4117H157.072ZM178.88 30C176.345 30 174.258 29.4117 172.621 28.2352C170.984 27.0588 169.994 25.3361 169.65 23.0672L173.849 21.9328C174.034 22.9972 174.364 23.8375 174.839 24.4537C175.315 25.07 175.896 25.5042 176.583 25.7563C177.296 26.0084 178.061 26.1345 178.88 26.1345C180.121 26.1345 181.045 25.8964 181.653 25.4201C182.286 24.944 182.603 24.3417 182.603 23.6134C182.603 22.8571 182.299 22.2969 181.692 21.9328C181.111 21.5686 180.213 21.2605 178.998 21.0084L177.77 20.7983C176.424 20.5182 175.196 20.14 174.087 19.6638C172.978 19.1596 172.08 18.4874 171.394 17.647C170.733 16.7787 170.403 15.6862 170.403 14.3697C170.403 12.3529 171.103 10.7983 172.502 9.70585C173.928 8.61344 175.79 8.06725 178.088 8.06725C180.279 8.06725 182.088 8.58546 183.514 9.62182C184.94 10.6583 185.864 12.0448 186.287 13.7815L182.088 15.126C181.877 13.9496 181.415 13.1233 180.702 12.647C179.989 12.1429 179.117 11.8907 178.088 11.8907C177.031 11.8907 176.213 12.0868 175.632 12.479C175.077 12.8711 174.8 13.4314 174.8 14.1596C174.8 14.888 175.09 15.4342 175.671 15.7983C176.253 16.1625 177.031 16.4285 178.009 16.5967L179.236 16.8487C180.689 17.1289 181.996 17.493 183.158 17.9411C184.346 18.3893 185.283 19.0336 185.97 19.8739C186.656 20.7143 187 21.8487 187 23.2773C187 25.4341 186.261 27.1008 184.782 28.2773C183.33 29.4257 181.362 30 178.88 30Z" fill="white"/>
</svg>
