<svg width="47" height="35" viewBox="0 0 47 35" fill="none" xmlns="http://www.w3.org/2000/svg">
<path d="M7.28239 34.1591H41.0444C44.819 34.1591 46.9999 32.1318 46.9999 28.1161V6.59527C46.9999 2.5991 44.798 0.571777 40.4152 0.571777H6.65328C2.87865 0.571777 0.697754 2.57961 0.697754 6.59527V28.1161C0.697754 32.1512 2.89962 34.1591 7.28239 34.1591ZM21.3534 18.3499L5.52089 3.82719C5.98224 3.65175 6.52746 3.55428 7.15657 3.55428H40.5411C41.1911 3.55428 41.7573 3.65175 42.2187 3.84669L26.4281 18.3499C25.5264 19.1881 24.7086 19.5584 23.8908 19.5584C23.052 19.5584 22.2341 19.1686 21.3534 18.3499ZM3.90619 28.1161V6.59527C3.90619 6.43932 3.90619 6.51729 3.90619 6.38084L15.964 17.3947L3.92716 28.4475C3.90619 28.35 3.90619 28.2331 3.90619 28.1161ZM43.7915 6.61476V28.1356C43.7915 28.2136 43.7915 28.311 43.7915 28.389L31.8175 17.3947L43.7915 6.43932C43.7915 6.61476 43.7915 6.61476 43.7915 6.61476ZM7.15657 31.1766C6.5694 31.1766 6.06612 31.0986 5.62574 30.9232L18.1659 19.4025L19.529 20.6501C20.9969 21.9951 22.4019 22.5604 23.8908 22.5604C25.3587 22.5604 26.7846 21.9951 28.2526 20.6501L29.6156 19.4025L42.1348 30.9037C41.6735 31.0986 41.1492 31.1766 40.5411 31.1766H7.15657Z" fill="white" fill-opacity="0.8"/>
</svg>
