<svg width="48" height="46" viewBox="0 0 48 46" fill="none" xmlns="http://www.w3.org/2000/svg">
<path d="M25.4867 38.2149C33.2229 37.2717 39.2093 30.8194 39.2093 23.0002C39.2093 14.5318 32.1879 7.66683 23.5264 7.66683C14.8649 7.66683 7.84335 14.5318 7.84335 23.0002C7.84335 30.8194 13.8297 37.2717 21.566 38.2149V26.8335H17.6452V23.0002H21.566V19.8296C21.566 17.2666 21.8389 16.3371 22.3515 15.4001C22.864 14.463 23.6161 13.7276 24.5746 13.2265C25.3248 12.8342 26.2554 12.5975 27.8817 12.4959C28.5271 12.4556 29.3626 12.507 30.3877 12.6502V16.2918H29.4075C27.6092 16.2918 26.8672 16.3749 26.4236 16.6068C26.1486 16.7507 25.956 16.9389 25.8088 17.2079C25.5716 17.6415 25.4867 18.0715 25.4867 19.8296V23.0002H30.3877L29.4075 26.8335H25.4867V38.2149ZM23.5264 42.1668C12.6995 42.1668 3.92261 33.5855 3.92261 23.0002C3.92261 12.4147 12.6995 3.8335 23.5264 3.8335C34.3531 3.8335 43.1301 12.4147 43.1301 23.0002C43.1301 33.5855 34.3531 42.1668 23.5264 42.1668Z" fill="white" fill-opacity="0.8"/>
</svg>
