<svg width="32" height="35" viewBox="0 0 32 35" fill="none" xmlns="http://www.w3.org/2000/svg">
<g id="7089160_google_meet_icon">
<path id="Vector" d="M8.52632 11.7961V23.0669H18.6685V11.7961H8.52632Z" fill="white"/>
<path id="Vector_2" d="M2.82133 12.5006V22.3625L5.99077 23.0669L9.16021 22.3625V12.5006L5.99077 11.7961L2.82133 12.5006Z" fill="#1E88E5"/>
<path id="Vector_3" d="M24.3735 17.4315V27.2934C24.3735 28.4606 23.5222 29.4067 22.4718 29.4067H9.16021L8.52632 25.8845L9.16021 22.3624H18.0346V17.4315L21.2041 16.7271L24.3735 17.4315Z" fill="#4CAF50"/>
<path id="Vector_4" d="M24.3735 7.56957V17.4315H18.0346V12.5005H9.16021L8.52632 8.97841L9.16021 5.4563H22.4718C23.5222 5.4563 24.3735 6.40234 24.3735 7.56957Z" fill="#FBC02D"/>
<path id="Vector_5" d="M9.16021 22.3624V29.4067H4.723C3.67265 29.4067 2.82133 28.4606 2.82133 27.2934V22.3624H9.16021Z" fill="#1565C0"/>
<path id="Vector_6" d="M9.16021 5.4563V12.5005H2.82133L9.16021 5.4563Z" fill="#E53935"/>
<path id="Vector_7" d="M25.0074 17.4315L24.3735 23.3839L18.0346 17.4315L24.3735 11.4791L25.0074 17.4315Z" fill="#2E7D32"/>
<path id="Vector_8" d="M30.0785 7.64706V27.2159C30.0785 27.8076 29.4573 28.1387 29.0453 27.7654L24.3735 23.3839V11.4791L29.0453 7.09761C29.4573 6.72427 30.0785 7.05534 30.0785 7.64706Z" fill="#4CAF50"/>
</g>
</svg>
