<svg width="40" height="40" viewBox="0 0 40 40" fill="none" xmlns="http://www.w3.org/2000/svg">
<path d="M20.22 14.2502C16.9708 14.2502 14.3388 16.8244 14.3388 20.0002C14.3388 23.1766 16.9718 25.7502 20.22 25.7502C23.4689 25.7502 26.1011 23.1759 26.1011 20.0002C26.1011 16.8237 23.4681 14.2502 20.22 14.2502ZM20.22 10.4168C25.6314 10.4168 30.0218 14.7046 30.0218 20.0002C30.0218 25.2911 25.6363 29.5835 20.22 29.5835C14.8084 29.5835 10.4181 25.2957 10.4181 20.0002C10.4181 14.7093 14.8036 10.4168 20.22 10.4168ZM32.9624 9.93603C32.9624 11.2587 31.863 12.3319 30.5119 12.3319C29.1591 12.3319 28.0615 11.2571 28.0615 9.93603C28.0615 8.61497 29.1606 7.54183 30.5119 7.54183C31.8612 7.54016 32.9624 8.61497 32.9624 9.93603ZM20.22 4.66683C15.369 4.66683 14.5784 4.67938 12.3222 4.77761C10.785 4.84816 9.75458 5.0503 8.79719 5.4137C7.94639 5.73631 7.33266 6.12154 6.67874 6.76088C6.02231 7.40268 5.629 8.00112 5.30036 8.83334C4.92781 9.77152 4.72113 10.7774 4.65026 12.2782C4.54882 14.3943 4.53695 15.1338 4.53695 20.0002C4.53695 24.7429 4.5498 25.5159 4.65024 27.7216C4.72245 29.2239 4.92946 30.2329 5.30024 31.1667C5.63108 31.9996 6.0259 32.6011 6.67666 33.2374C7.33568 33.8808 7.94959 34.2667 8.79271 34.5848C9.76176 34.9511 10.7915 35.1535 12.3219 35.2227C14.4862 35.3218 15.2426 35.3335 20.22 35.3335C25.0709 35.3335 25.8615 35.3208 28.1175 35.2227C29.6507 35.1524 30.6834 34.9494 31.6411 34.5871C32.4907 34.2646 33.1078 33.8772 33.7591 33.2414C34.4182 32.5961 34.812 31.9973 35.1378 31.1711C35.5115 30.2271 35.7189 29.2189 35.7896 27.7222C35.891 25.606 35.9029 24.8664 35.9029 20.0002C35.9029 15.2574 35.89 14.4844 35.7896 12.2786C35.7175 10.7792 35.5099 9.76802 35.139 8.83209C34.8098 8.00256 34.4144 7.40067 33.761 6.76088C33.1035 6.11803 32.4931 5.73428 31.6413 5.41322C30.6825 5.04928 29.6521 4.84692 28.1179 4.77763C25.9537 4.67842 25.1972 4.66683 20.22 4.66683ZM20.22 0.833496C25.5455 0.833496 26.2105 0.852663 28.3016 0.948496C30.3876 1.04274 31.8107 1.36537 33.0604 1.83975C34.3525 2.32691 35.4438 2.98495 36.5334 4.05029C37.6214 5.11565 38.2946 6.18579 38.7945 7.44599C39.2779 8.66628 39.608 10.059 39.7061 12.0987C39.7992 14.1432 39.8237 14.7932 39.8237 20.0002C39.8237 25.2072 39.8041 25.8571 39.7061 27.9016C39.6096 29.9413 39.2779 31.3324 38.7945 32.5543C38.2962 33.8178 37.6214 34.8846 36.5334 35.9501C35.4438 37.0138 34.3476 37.6718 33.0604 38.1606C31.8107 38.6334 30.3876 38.956 28.3016 39.0518C26.2105 39.1429 25.5455 39.1668 20.22 39.1668C14.8942 39.1668 14.2293 39.1477 12.1383 39.0518C10.0521 38.9575 8.63086 38.6334 7.37949 38.1606C6.0889 37.6734 4.996 37.0138 3.90636 35.9501C2.81673 34.8846 2.1453 33.813 1.64541 32.5543C1.16021 31.3324 0.831852 29.9413 0.733834 27.9016C0.640716 25.8571 0.616211 25.2072 0.616211 20.0002C0.616211 14.7932 0.635815 14.1432 0.733834 12.0987C0.830205 10.0575 1.16021 8.66787 1.64541 7.44599C2.14365 6.1842 2.81673 5.11565 3.90636 4.05029C4.996 2.98495 6.09055 2.3285 7.37949 1.83975C8.62923 1.36537 10.0505 1.04433 12.1383 0.948496C14.2293 0.857454 14.8942 0.833496 20.22 0.833496Z" fill="white" fill-opacity="0.8"/>
</svg>
