<svg width="89" height="106" viewBox="0 0 89 106" fill="none" xmlns="http://www.w3.org/2000/svg">
<g id="learning-school-svgrepo-com">
<path id="Vector" d="M42.8212 58.1117C55.5822 57.7975 66.133 48.6708 66.3869 37.7265C66.6408 26.7822 56.5018 18.1648 43.7408 18.479C30.9797 18.7932 20.4289 27.9199 20.175 38.8642C19.9211 49.8085 30.0601 58.4259 42.8212 58.1117Z" fill="#59D8FF"/>
<path id="Vector_2" d="M35.3066 34.1861C35.3744 31.2632 36.1776 28.472 37.5583 25.9428C37.7628 25.5681 38.2492 25.3628 38.7075 25.4428L41.7079 25.9666C42.2956 26.0691 42.9007 26.1137 43.5065 26.0988C44.1123 26.0839 44.7202 26.0096 45.3134 25.8779L54.3868 23.8636C55.6375 23.586 56.6838 22.9348 57.3907 22.0831C53.7635 19.8041 49.2585 18.4858 44.3415 18.4874C44.3457 18.4845 44.3496 18.4813 44.3538 18.4784C44.1303 18.4785 43.9082 18.4749 43.6833 18.4804C30.4716 18.8057 19.6346 28.6241 20.1908 40.1156C20.673 50.0773 30.0195 57.9209 41.6236 58.1175C47.4909 58.2168 52.9441 56.4319 57.2251 53.4371C44.8137 53.4368 35.0571 44.937 35.3066 34.1861Z" fill="#00C3F0"/>
<path id="Vector_3" d="M55.8426 27.4445C57.9236 27.0302 59.9869 26.5278 62.0243 25.9311C61.5954 25.4402 61.1392 24.9684 60.657 24.5175C58.8642 25.0181 57.0537 25.4592 55.2251 25.8141C54.0462 23.0262 52.4242 20.7537 50.4923 19.1791C48.3637 18.6695 46.0974 18.421 43.7409 18.479C41.3843 18.537 39.1041 18.8974 36.9493 19.5123C34.945 21.1817 33.2175 23.5328 31.9083 26.3769C30.0973 26.1103 28.3086 25.7571 26.5405 25.3437C26.036 25.8186 25.5569 26.3133 25.104 26.8256C27.1132 27.3237 29.1525 27.7255 31.2137 28.0391C30.113 30.9359 29.419 34.242 29.2503 37.7796L20.2204 38.0019C20.1994 38.2883 20.1817 38.5752 20.175 38.8642C20.1683 39.1532 20.1727 39.4396 20.1804 39.7252L29.2103 39.5029C29.2149 43.0355 29.756 46.3109 30.7231 49.1563C28.6418 49.5694 26.5782 50.0697 24.5442 50.6665C24.9734 51.1572 25.4297 51.629 25.9124 52.0797C27.7036 51.5789 29.5125 51.1378 31.3396 50.7823C32.5154 53.5606 34.1289 55.8331 36.0524 57.4078C38.186 57.9202 40.4583 58.1699 42.8212 58.1117C45.1841 58.0535 47.4705 57.6916 49.6305 57.0736C51.6296 55.4021 53.3505 53.0473 54.6566 50.2078C56.4691 50.4737 58.2593 50.8269 60.0291 51.2401C60.5331 50.7651 61.012 50.2702 61.4646 49.7578C59.4559 49.2609 57.4136 48.8606 55.3491 48.5497C56.4492 45.6534 57.143 42.3478 57.3116 38.8108L66.3415 38.5885C66.3625 38.3021 66.3802 38.0152 66.3869 37.7262C66.3936 37.4372 66.3892 37.1509 66.3815 36.8652L57.3516 37.0876C57.3471 33.5594 56.8074 30.2876 55.8426 27.4445ZM41.8183 58.0624C38.3062 57.6687 35.2768 54.7683 33.3668 50.4211C36.2319 49.9508 39.1237 49.6611 42.0159 49.5483L41.8183 58.0624ZM42.0559 47.8254C38.9352 47.9455 35.8152 48.2671 32.7264 48.7899C31.7729 46.0552 31.2293 42.8716 31.2191 39.4534L42.2564 39.1817L42.0559 47.8254ZM42.2964 37.4585L31.2591 37.7303C31.428 34.3083 32.1198 31.0947 33.2011 28.3102C36.262 28.6851 39.3669 28.8575 42.4968 28.8256L42.2964 37.4585ZM42.5369 27.0914C39.6472 27.1198 36.7663 26.9709 33.9206 26.6398C36.0347 22.1958 39.2011 19.1448 42.7345 18.5778L42.5369 27.0914ZM44.7437 18.5283C48.257 18.9221 51.2875 21.8244 53.1974 26.1743C50.3315 26.6435 47.4388 26.9317 44.5461 27.0429L44.7437 18.5283ZM43.8275 58.0129L44.0251 49.4988C46.9155 49.4691 49.7973 49.6164 52.6438 49.9461C50.5296 54.3927 47.362 57.4457 43.8275 58.0129ZM53.3604 48.282C50.2922 47.9109 47.1834 47.7425 44.0649 47.7759L44.2655 39.1322L55.3028 38.8604C55.134 42.2831 54.4422 45.4972 53.3604 48.282ZM44.3056 37.409L44.5059 28.7773C47.6386 28.6579 50.7564 28.3353 53.8394 27.8118C54.7905 30.5441 55.3329 33.7238 55.3431 37.1373L44.3056 37.409Z" fill="#E4EAF8"/>
<path id="Vector_4" d="M50.8546 52.691C48.8864 55.6266 46.3797 57.5766 43.6501 58.0173L43.8434 49.6843C42.9843 49.1268 42.1751 48.5157 41.424 47.8552C38.4829 47.9881 35.5437 48.2966 32.6323 48.7926C31.6861 46.0577 31.1471 42.8736 31.1375 39.4554L35.908 39.3379C35.7447 38.7775 35.6111 38.2063 35.506 37.6256L31.1776 37.7322C31.3459 34.3101 32.0332 31.0965 33.1071 28.312C34.158 28.4419 35.2158 28.5386 36.2766 28.62C36.4823 28.0447 36.7218 27.4816 36.9833 26.9274C35.9261 26.8544 34.871 26.7648 33.8219 26.6415C35.9212 22.1983 39.0647 19.148 42.5721 18.5817L42.5439 19.7948C43.0864 19.3361 43.6489 18.8952 44.2379 18.4812C44.0156 18.4813 43.7946 18.4777 43.5708 18.4832C41.2316 18.5408 38.9681 18.9007 36.8291 19.5152C34.8394 21.1843 33.1241 23.5347 31.8243 26.3785C30.0269 26.1116 28.2513 25.7583 26.4964 25.3444C25.9955 25.8193 25.5198 26.3138 25.0701 26.8261C27.0645 27.3244 29.0885 27.7266 31.1344 28.0406C30.0413 30.9373 29.3518 34.2435 29.1838 37.7813L20.2202 38.002C20.1993 38.2883 20.1817 38.5752 20.175 38.8642C20.1683 39.1532 20.1726 39.4396 20.1802 39.7252L29.1437 39.5045C29.1476 43.0375 29.6842 46.313 30.6438 49.1589C28.5781 49.5715 26.5295 50.0715 24.5102 50.6678C24.9362 51.1586 25.3892 51.6305 25.8681 52.0813C27.6463 51.5807 29.4417 51.14 31.2553 50.7847C32.4249 53.5702 34.0337 55.8409 35.9496 57.4148C38.0625 57.9246 40.3119 58.1735 42.6511 58.1159C45.0054 58.0579 47.2753 57.6789 49.4257 57.0562C50.6845 55.9939 51.8334 54.6611 52.8344 53.0984C52.1621 52.9884 51.5021 52.8516 50.8546 52.691ZM41.6557 58.0664C38.1695 57.6721 35.163 54.7712 33.2678 50.4236C36.1119 49.9536 38.9825 49.6643 41.8532 49.5519L41.6557 58.0664Z" fill="#D5DCED"/>
<path id="Vector_5" d="M75.1897 9.13794H72.1208V29.2413H75.1897V9.13794Z" fill="#464655"/>
<path id="Vector_6" d="M62.1465 7.3103H26.8535L25.0672 24.3316C24.7745 27.1207 26.3004 29.7221 28.6 30.3539L42.4299 34.155C43.7924 34.5295 45.208 34.5295 46.5705 34.155L60.4004 30.3539C62.7 29.7219 64.2259 27.1207 63.9331 24.3316L62.1465 7.3103Z" fill="#5B5D6E"/>
<path id="Vector_7" d="M62.1465 7.3103H26.8535L25.0672 24.3316C24.7745 27.1209 26.3004 29.7219 28.6 30.3539L42.4299 34.155C43.111 34.3422 43.8056 34.4357 44.5002 34.4357V23.5132C44.5002 22.6323 45.0279 21.8766 45.7552 21.7162L63.2536 17.8567L62.1465 7.3103Z" fill="#464655"/>
<path id="Vector_8" d="M44.5 0L8.51548 7.93675C7.3969 8.18353 7.3969 10.0926 8.51548 10.3393L44.5 18.2759L80.4847 10.3391C81.6033 10.0924 81.6033 8.18332 80.4847 7.93654L44.5 0Z" fill="#707487"/>
<g id="Group">
<path id="Vector_9" d="M73.659 34.7241C75.3539 34.7241 76.7279 33.0876 76.7279 31.069C76.7279 29.0503 75.3539 27.4138 73.659 27.4138C71.964 27.4138 70.59 29.0503 70.59 31.069C70.59 33.0876 71.964 34.7241 73.659 34.7241Z" fill="#5B5D6E"/>
<path id="Vector_10" d="M73.6593 34.7241C71.9643 34.7241 70.5903 36.3605 70.5903 38.3793V45.6895C70.5903 46.6988 71.2775 47.5172 72.1249 47.5172H75.1938C76.0412 47.5172 76.7284 46.6988 76.7284 45.6895V38.3793C76.7284 36.3605 75.3543 34.7241 73.6593 34.7241Z" fill="#5B5D6E"/>
</g>
</g>
</svg>
