<svg width="38" height="40" viewBox="0 0 38 40" fill="none" xmlns="http://www.w3.org/2000/svg">
<g id="linkedin-161-svgrepo-com" clip-path="url(#clip0_223_266)">
<g id="Page-1">
<g id="Dribbble-Light-Preview">
<g id="icons">
<path id="linkedin-[#161]" fill-rule="evenodd" clip-rule="evenodd" d="M38 40H30.4V26.002C30.4 22.162 28.7907 20.0195 25.9046 20.0195C22.7639 20.0195 20.9 22.252 20.9 26.002V40H13.3V14H20.9V16.9238C20.9 16.9238 23.2845 12.5195 28.6577 12.5195C34.0328 12.5195 38 15.9722 38 23.1162V40ZM4.6398 9.8418C2.0767 9.8418 0 7.63792 0 4.91992C0 2.20392 2.0767 0 4.6398 0C7.201 0 9.27769 2.20392 9.27769 4.91992C9.27959 7.63792 7.201 9.8418 4.6398 9.8418ZM0 40H9.5V14H0V40Z" fill="white" fill-opacity="0.9"/>
</g>
</g>
</g>
</g>
<defs>
<clipPath id="clip0_223_266">
<rect width="38" height="40" fill="white"/>
</clipPath>
</defs>
</svg>
