<svg width="129" height="22" viewBox="0 0 129 22" fill="none" xmlns="http://www.w3.org/2000/svg">
<path d="M11.0761 0.313477L13.4314 7.71392H21.0531L14.887 12.2877L17.2423 19.6881L11.0761 15.1144L4.91001 19.6881L7.26526 12.2877L1.09913 7.71392H8.72089L11.0761 0.313477Z" fill="#FF9C00"/>
<path d="M37.885 0.313477L40.2403 7.71392H47.862L41.6959 12.2877L44.0512 19.6881L37.885 15.1144L31.7189 19.6881L34.0742 12.2877L27.908 7.71392H35.5298L37.885 0.313477Z" fill="#FF9C00"/>
<path d="M64.694 0.313477L67.0492 7.71392H74.671L68.5049 12.2877L70.8601 19.6881L64.694 15.1144L58.5278 19.6881L60.8831 12.2877L54.717 7.71392H62.3387L64.694 0.313477Z" fill="#FF9C00"/>
<path d="M91.5029 0.313477L93.8581 7.71392H101.48L95.3138 12.2877L97.669 19.6881L91.5029 15.1144L85.3367 19.6881L87.692 12.2877L81.5259 7.71392H89.1476L91.5029 0.313477Z" fill="#FF9C00"/>
<path d="M118.312 0.313477L120.667 7.71392H128.289L122.123 12.2877L124.478 19.6881L118.312 15.1144L112.146 19.6881L114.501 12.2877L108.335 7.71392H115.957L118.312 0.313477Z" fill="#FF9C00"/>
</svg>
