<svg width="20" height="17" viewBox="0 0 20 17" fill="none" xmlns="http://www.w3.org/2000/svg">
<path d="M9.99694 8.22454C11.0949 8.22454 12.1479 7.83185 12.9243 7.13287C13.7007 6.43388 14.1369 5.48585 14.1369 4.49734C14.1369 3.50882 13.7007 2.5608 12.9243 1.86181C12.1479 1.16283 11.0949 0.770142 9.99694 0.770142C8.89896 0.770142 7.84595 1.16283 7.06957 1.86181C6.29318 2.5608 5.857 3.50882 5.857 4.49734C5.857 5.48585 6.29318 6.43388 7.06957 7.13287C7.84595 7.83185 8.89896 8.22454 9.99694 8.22454ZM9.99694 9.86209C4.49263 9.86209 0.96405 12.5968 0.96405 13.9283V16.4145H19.0298V13.9283C19.0298 12.3181 15.6893 9.86209 9.99694 9.86209Z" fill="#A7E92F"/>
</svg>
