<svg width="44" height="37" viewBox="0 0 44 37" fill="none" xmlns="http://www.w3.org/2000/svg">
<path d="M32.076 21.8032C31.5246 21.5724 28.8392 20.4888 28.3374 20.3342C27.8355 20.1864 27.4711 20.1091 27.1054 20.565C26.7479 21.0096 25.6946 22.0271 25.3729 22.3239C25.0511 22.6206 24.7349 22.6434 24.1917 22.4421C23.6404 22.2113 21.879 21.7372 19.7876 20.1864C18.1541 18.9847 17.0665 17.5044 16.7434 17.0485C16.4216 16.5982 16.7076 16.3436 16.9799 16.1184C17.2301 15.9115 17.5312 15.5977 17.8104 15.3249C18.0758 15.052 18.161 14.8689 18.3549 14.5733C18.5336 14.2539 18.4415 14.0049 18.3054 13.7797C18.1693 13.5546 17.0734 11.3228 16.6155 10.4337C16.1782 9.55146 15.7204 9.66401 15.3835 9.66401C15.0686 9.64014 14.7029 9.64014 14.3385 9.64014C13.9741 9.64014 13.3787 9.7527 12.8769 10.1847C12.375 10.6406 10.9574 11.7298 10.9574 13.9332C10.9574 16.1423 12.9195 18.2798 13.1917 18.5992C13.4709 18.8948 17.0514 23.4426 22.5445 25.397C23.8549 25.8529 24.8724 26.1258 25.6671 26.3509C26.9775 26.6943 28.1737 26.6465 29.1184 26.534C30.1634 26.3919 32.3551 25.438 32.8144 24.3726C33.2805 23.3005 33.2805 22.4126 33.1444 22.2113C33.0083 22.0044 32.6507 21.8918 32.0994 21.6906L32.076 21.8032ZM22.1141 32.9713H22.0853C18.8334 32.9713 15.6186 32.2426 12.8109 30.8805L12.1523 30.5553L5.27725 32.0356L7.12525 26.5044L6.68113 25.9359C4.86888 23.5495 3.90225 20.7958 3.90225 17.966C3.90225 9.71176 12.0739 2.97879 22.1279 2.97879C26.9981 2.97879 31.5672 4.54777 35.0047 7.39013C38.4422 10.2086 40.3397 13.9867 40.3397 17.9898C40.326 26.2384 32.1612 32.9713 22.121 32.9713H22.1141ZM37.6186 5.2288C33.4359 1.88846 27.9359 0 22.0853 0C10.0183 0 0.1925 8.08935 0.185625 18.0308C0.185625 21.2051 1.188 24.3022 3.1075 27.0433L0 36.3822L11.616 33.8775C14.817 35.3043 18.4195 36.0684 22.0866 36.0741H22.0935C34.1674 36.0741 43.9931 27.9847 44 18.0365C44 13.2226 41.7299 8.69193 37.5911 5.28678L37.6186 5.2288Z" fill="white" fill-opacity="0.8"/>
</svg>
